<svg width="32" height="32" viewBox="0 0 32 32" fill="none" xmlns="http://www.w3.org/2000/svg">
<path d="M14.2383 0.337402C12.736 2.49357 14.2281 8.19416 14.5548 10.779L15.8204 10.4626C15.4684 7.67733 15.798 2.62035 14.2383 0.337402Z" fill="url(#paint0_linear_36_5942)"/>
<path d="M18.3521 0.653809L16.1372 10.4626L17.4029 10.779L19.3013 0.970221L18.3521 0.653809Z" fill="url(#paint1_linear_36_5942)"/>
<path d="M9.17592 1.91944L12.6565 11.0954L6.64462 3.81792L5.37897 4.13433L11.3908 12.3611L2.84766 6.98205L2.53125 8.2477L11.0744 13.6267L12.6565 11.0954L14.2385 10.779L10.4416 1.60303L9.17592 1.91944Z" fill="url(#paint2_linear_36_5942)"/>
<path d="M22.4654 1.91943L17.7192 11.0954C19.9267 11.4295 23.9614 3.6274 22.4654 1.91943Z" fill="url(#paint3_linear_36_5942)"/>
<path d="M19.3013 12.3608C22.1476 11.7607 25.5813 7.3976 27.2116 5.08326C24.5565 4.86082 19.9833 9.93089 19.3013 12.3608Z" fill="url(#paint4_linear_36_5942)"/>
<path d="M0.949714 11.0952L0.633301 12.0445C3.30933 13.4489 7.41982 14.7541 10.4421 14.8922C9.62297 12.5366 3.24206 11.5696 0.949714 11.0952Z" fill="url(#paint5_linear_36_5942)"/>
<path d="M0 15.5254V16.791H10.1252V15.5254H0Z" fill="url(#paint6_linear_36_5942)"/>
<path d="M21.1992 16.7908L31.3244 16.4744V15.8416C29.3155 15.2478 21.9548 14.5143 21.1992 16.7908Z" fill="url(#paint7_linear_36_5942)"/>
<path d="M20.8833 17.4238C21.7046 19.7839 28.0861 20.747 30.3757 21.2208L30.6921 20.9044V20.2715C27.9988 18.858 23.9249 17.5564 20.8833 17.4238Z" fill="url(#paint8_linear_36_5942)"/>
<path d="M20.5664 18.6895L19.9336 19.9551L28.4767 25.3341L28.7932 24.0685L20.5664 18.6895Z" fill="url(#paint9_linear_36_5942)"/>
<path d="M4.42969 27.2325L4.7461 27.5489L12.34 20.9042C10.3012 19.0307 5.27948 25.4102 4.42969 27.2325Z" fill="url(#paint10_linear_36_5942)"/>
<path d="M20.8833 30.7127H22.1489L18.6684 20.9039H18.9848C20.2824 23.4187 23.0503 27.2698 25.6294 28.4978L25.9459 28.1814C24.9225 25.8852 22.4579 22.595 20.4753 21.0182C19.6299 20.3458 18.0292 20.4976 17.6268 21.6603C16.9124 23.7249 20.2989 28.5772 20.8833 30.7127Z" fill="url(#paint11_linear_36_5942)"/>
<path d="M12.34 20.9043C11.4558 23.0282 7.12803 28.5286 8.85947 30.3967L13.6057 21.2207L12.34 20.9043Z" fill="url(#paint12_linear_36_5942)"/>
<path d="M13.9219 21.5371L12.3398 31.6623C15.2464 30.8121 13.6353 24.0902 15.8204 22.1699C15.8204 24.195 15.5273 31.0213 17.7189 31.6623C17.7175 29.6256 18.1304 23.6525 16.7608 22.1155C16.2057 21.4925 14.6921 21.6208 13.9219 21.5371Z" fill="url(#paint13_linear_36_5942)"/>
<defs>
<linearGradient id="paint0_linear_36_5942" x1="13.2493" y1="0.337405" x2="15.9351" y2="0.369833" gradientUnits="userSpaceOnUse">
<stop stop-color="#3399FF"/>
<stop offset="1" stop-color="#007FFF"/>
</linearGradient>
<linearGradient id="paint1_linear_36_5942" x1="15.6708" y1="0.653811" x2="19.4627" y2="0.720477" gradientUnits="userSpaceOnUse">
<stop stop-color="#3399FF"/>
<stop offset="1" stop-color="#007FFF"/>
</linearGradient>
<linearGradient id="paint2_linear_36_5942" x1="0.805611" y1="1.60303" x2="14.7979" y2="2.36952" gradientUnits="userSpaceOnUse">
<stop stop-color="#3399FF"/>
<stop offset="1" stop-color="#007FFF"/>
</linearGradient>
<linearGradient id="paint3_linear_36_5942" x1="16.9718" y1="1.91944" x2="23.0448" y2="2.10804" gradientUnits="userSpaceOnUse">
<stop stop-color="#3399FF"/>
<stop offset="1" stop-color="#007FFF"/>
</linearGradient>
<linearGradient id="paint4_linear_36_5942" x1="18.1353" y1="5.07617" x2="27.5827" y2="5.65334" gradientUnits="userSpaceOnUse">
<stop stop-color="#3399FF"/>
<stop offset="1" stop-color="#007FFF"/>
</linearGradient>
<linearGradient id="paint5_linear_36_5942" x1="-0.812505" y1="11.0952" x2="10.7027" y2="12.7688" gradientUnits="userSpaceOnUse">
<stop stop-color="#3399FF"/>
<stop offset="1" stop-color="#007FFF"/>
</linearGradient>
<linearGradient id="paint6_linear_36_5942" x1="-1.49244" y1="15.5254" x2="8.60072" y2="20.0681" gradientUnits="userSpaceOnUse">
<stop stop-color="#3399FF"/>
<stop offset="1" stop-color="#007FFF"/>
</linearGradient>
<linearGradient id="paint7_linear_36_5942" x1="19.7068" y1="15.2383" x2="30.4044" y2="19.1633" gradientUnits="userSpaceOnUse">
<stop stop-color="#3399FF"/>
<stop offset="1" stop-color="#007FFF"/>
</linearGradient>
<linearGradient id="paint8_linear_36_5942" x1="19.4375" y1="17.4238" x2="30.9527" y2="19.0974" gradientUnits="userSpaceOnUse">
<stop stop-color="#3399FF"/>
<stop offset="1" stop-color="#007FFF"/>
</linearGradient>
<linearGradient id="paint9_linear_36_5942" x1="18.6277" y1="18.6895" x2="29.1888" y2="19.4817" gradientUnits="userSpaceOnUse">
<stop stop-color="#3399FF"/>
<stop offset="1" stop-color="#007FFF"/>
</linearGradient>
<linearGradient id="paint10_linear_36_5942" x1="3.26372" y1="20.5635" x2="12.708" y2="21.1652" gradientUnits="userSpaceOnUse">
<stop stop-color="#3399FF"/>
<stop offset="1" stop-color="#007FFF"/>
</linearGradient>
<linearGradient id="paint11_linear_36_5942" x1="16.2876" y1="20.6187" x2="26.3561" y2="21.091" gradientUnits="userSpaceOnUse">
<stop stop-color="#3399FF"/>
<stop offset="1" stop-color="#007FFF"/>
</linearGradient>
<linearGradient id="paint12_linear_36_5942" x1="7.69533" y1="20.9043" x2="13.8645" y2="21.0926" gradientUnits="userSpaceOnUse">
<stop stop-color="#3399FF"/>
<stop offset="1" stop-color="#007FFF"/>
</linearGradient>
<linearGradient id="paint13_linear_36_5942" x1="11.5385" y1="21.5371" x2="18.0496" y2="21.7338" gradientUnits="userSpaceOnUse">
<stop stop-color="#3399FF"/>
<stop offset="1" stop-color="#007FFF"/>
</linearGradient>
</defs>
</svg>
