<svg width="287" height="200" viewBox="0 0 287 200" fill="none" xmlns="http://www.w3.org/2000/svg">
<path d="M233.329 0H61.9C54.0102 0 47.6143 6.39593 47.6143 14.2857V185.714C47.6143 193.604 54.0102 200 61.9 200H233.329C241.218 200 247.614 193.604 247.614 185.714V14.2857C247.614 6.39593 241.218 0 233.329 0Z" fill="#F4F6F8"/>
<g filter="url(#filter0_d_143_1557)">
<path d="M209.362 14H16.6379C12.6958 14 9.5 17.198 9.5 21.1429V56.8571C9.5 60.802 12.6958 64 16.6379 64H209.362C213.304 64 216.5 60.802 216.5 56.8571V21.1429C216.5 17.198 213.304 14 209.362 14Z" fill="#F0F7FF"/>
</g>
<path d="M108.004 25.4287H70.8863C68.521 25.4287 66.6035 27.3475 66.6035 29.7144C66.6035 32.0814 68.521 34.0001 70.8863 34.0001H108.004C110.369 34.0001 112.286 32.0814 112.286 29.7144C112.286 27.3475 110.369 25.4287 108.004 25.4287Z" fill="#C2E0FF"/>
<path d="M133.7 44H70.8863C68.521 44 66.6035 45.9188 66.6035 48.2857C66.6035 50.6526 68.521 52.5714 70.8863 52.5714H133.7C136.065 52.5714 137.983 50.6526 137.983 48.2857C137.983 45.9188 136.065 44 133.7 44Z" fill="#DCE3F1"/>
<path d="M49.0425 18.5713H21.8997C17.9548 18.5713 14.7568 21.7693 14.7568 25.7141V52.857C14.7568 56.8019 17.9548 59.9999 21.8997 59.9999H49.0425C52.9874 59.9999 56.1854 56.8019 56.1854 52.857V25.7141C56.1854 21.7693 52.9874 18.5713 49.0425 18.5713Z" fill="url(#paint0_linear_143_1557)"/>
<path d="M32.2166 43.9713H35.0737L35.1052 42.8713C35.1052 41.4256 36.0166 41.0484 37.3052 40.6399C38.5977 40.2722 39.7355 39.4936 40.5463 38.422C41.3572 37.3503 41.797 36.0437 41.7994 34.6999C41.8277 33.8794 41.6854 33.0619 41.3814 32.2993C41.0775 31.5367 40.6185 30.8454 40.0336 30.2693C39.4486 29.6933 38.7505 29.2449 37.9833 28.9526C37.2161 28.6603 36.3966 28.5305 35.5766 28.5713C34.71 28.5524 33.8487 28.7097 33.0448 29.0337C32.2408 29.3577 31.5111 29.8417 30.8998 30.4562C30.2885 31.0706 29.8084 31.8029 29.4886 32.6085C29.1688 33.4141 29.016 34.2763 29.0394 35.1427H31.9937C31.9825 34.6643 32.0669 34.1885 32.2419 33.7431C32.417 33.2978 32.6792 32.8918 33.0131 32.5491C33.3471 32.2064 33.7461 31.9337 34.1868 31.7472C34.6274 31.5606 35.1009 31.4639 35.5794 31.4627C36.011 31.4377 36.4429 31.5059 36.8457 31.6626C37.2485 31.8194 37.6129 32.061 37.9141 32.3711C38.2152 32.6812 38.4461 33.0525 38.591 33.4597C38.7359 33.867 38.7914 34.3007 38.7537 34.7313C38.7347 35.4283 38.4923 36.1007 38.0623 36.6496C37.6323 37.1984 37.0374 37.5947 36.3652 37.7799L35.328 38.1913C34.3126 38.436 33.4261 39.053 32.844 39.9203C32.262 40.7875 32.0268 41.8418 32.1852 42.8742L32.2166 43.9713ZM33.6309 50.7627C33.9107 50.7727 34.1896 50.7264 34.4512 50.6267C34.7128 50.527 34.9517 50.3758 35.1539 50.1822C35.3561 49.9885 35.5173 49.7563 35.6282 49.4993C35.7391 49.2422 35.7973 48.9655 35.7994 48.6856C35.797 48.4059 35.7385 48.1295 35.6274 47.8728C35.5163 47.6161 35.355 47.3842 35.1529 47.1908C34.9507 46.9975 34.7119 46.8466 34.4505 46.7471C34.1891 46.6475 33.9104 46.6014 33.6309 46.6113C33.3513 46.6014 33.0726 46.6475 32.8112 46.7471C32.5498 46.8466 32.311 46.9975 32.1089 47.1908C31.9068 47.3842 31.7454 47.6161 31.6343 47.8728C31.5233 48.1295 31.4648 48.4059 31.4623 48.6856C31.4644 48.9655 31.5226 49.2422 31.6335 49.4993C31.7444 49.7563 31.9057 49.9885 32.1079 50.1822C32.31 50.3758 32.549 50.527 32.8106 50.6267C33.0722 50.7264 33.3511 50.7727 33.6309 50.7627V50.7627Z" fill="white"/>
<g filter="url(#filter1_d_143_1557)">
<path d="M77.6379 77H270.362C272.255 77 274.071 77.7525 275.409 79.0921C276.748 80.4316 277.5 82.2485 277.5 84.1429V119.857C277.5 121.752 276.748 123.568 275.409 124.908C274.071 126.247 272.255 127 270.362 127H77.6379C75.7448 127 73.9293 126.247 72.5907 124.908C71.252 123.568 70.5 121.752 70.5 119.857V84.1429C70.5 82.2485 71.252 80.4316 72.5907 79.0921C73.9293 77.7525 75.7448 77 77.6379 77Z" fill="#F0F7FF"/>
</g>
<path d="M170.004 86.4285H132.886C130.521 86.4285 128.604 88.3472 128.604 90.7142C128.604 93.0811 130.521 94.9999 132.886 94.9999H170.004C172.369 94.9999 174.286 93.0811 174.286 90.7142C174.286 88.3472 172.369 86.4285 170.004 86.4285Z" fill="#C2E0FF"/>
<path d="M195.7 105H132.886C130.521 105 128.604 106.919 128.604 109.286C128.604 111.653 130.521 113.571 132.886 113.571H195.7C198.065 113.571 199.983 111.653 199.983 109.286C199.983 106.919 198.065 105 195.7 105Z" fill="#DCE3F1"/>
<path d="M110.045 79.2856H82.9211C78.979 79.2856 75.7832 82.4836 75.7832 86.4285V113.571C75.7832 117.516 78.979 120.714 82.9211 120.714H110.045C113.987 120.714 117.183 117.516 117.183 113.571V86.4285C117.183 82.4836 113.987 79.2856 110.045 79.2856Z" fill="url(#paint1_linear_143_1557)"/>
<path d="M93.231 104.686H96.0862L96.1176 103.586C96.1176 102.14 97.0284 101.763 98.3161 101.354C99.6078 100.987 100.745 100.208 101.555 99.1363C102.365 98.0646 102.805 96.7581 102.807 95.4142C102.836 94.5937 102.693 93.7763 102.39 93.0137C102.086 92.251 101.627 91.5598 101.043 90.9837C100.458 90.4076 99.7604 89.9593 98.9937 89.667C98.227 89.3747 97.4081 89.2448 96.5887 89.2857C95.7227 89.2668 94.862 89.4241 94.0586 89.7481C93.2552 90.0721 92.526 90.556 91.9151 91.1705C91.3043 91.785 90.8245 92.5173 90.5049 93.3229C90.1854 94.1285 90.0326 94.9906 90.056 95.8571H93.0083C92.9971 95.3787 93.0814 94.9029 93.2563 94.4575C93.4313 94.0121 93.6933 93.6062 94.027 93.2634C94.3607 92.9207 94.7594 92.6481 95.1998 92.4615C95.6402 92.275 96.1133 92.1783 96.5915 92.1771C97.0228 92.1521 97.4543 92.2202 97.8569 92.377C98.2595 92.5337 98.6236 92.7754 98.9246 93.0855C99.2255 93.3955 99.4562 93.7668 99.601 94.1741C99.7458 94.5814 99.8012 95.015 99.7636 95.4457C99.7446 96.1426 99.5024 96.8151 99.0727 97.3639C98.643 97.9128 98.0484 98.309 97.3767 98.4942L96.3403 98.9057C95.3256 99.1503 94.4397 99.7674 93.858 100.635C93.2764 101.502 93.0414 102.556 93.1996 103.589L93.231 104.686ZM94.6443 111.477C94.9239 111.487 95.2026 111.441 95.464 111.341C95.7254 111.241 95.9642 111.09 96.1663 110.897C96.3683 110.703 96.5295 110.471 96.6403 110.214C96.7511 109.957 96.8093 109.68 96.8114 109.4C96.8089 109.12 96.7504 108.844 96.6395 108.587C96.5285 108.33 96.3672 108.099 96.1652 107.905C95.9633 107.712 95.7246 107.561 95.4634 107.461C95.2022 107.362 94.9237 107.316 94.6443 107.326C94.365 107.316 94.0865 107.362 93.8252 107.461C93.564 107.561 93.3254 107.712 93.1234 107.905C92.9214 108.099 92.7601 108.33 92.6492 108.587C92.5382 108.844 92.4797 109.12 92.4772 109.4C92.4793 109.68 92.5375 109.957 92.6483 110.214C92.7591 110.471 92.9203 110.703 93.1224 110.897C93.3244 111.09 93.5632 111.241 93.8246 111.341C94.086 111.441 94.3647 111.487 94.6443 111.477V111.477Z" fill="white"/>
<g filter="url(#filter2_d_143_1557)">
<path d="M16.6379 137H209.362C211.255 137 213.071 137.753 214.409 139.092C215.748 140.432 216.5 142.248 216.5 144.143V179.857C216.5 181.752 215.748 183.568 214.409 184.908C213.071 186.247 211.255 187 209.362 187H16.6379C14.7448 187 12.9293 186.247 11.5907 184.908C10.252 183.568 9.5 181.752 9.5 179.857V144.143C9.5 142.248 10.252 140.432 11.5907 139.092C12.9293 137.753 14.7448 137 16.6379 137V137Z" fill="#F0F7FF"/>
</g>
<path d="M108.004 148.429H70.8863C68.521 148.429 66.6035 150.347 66.6035 152.714C66.6035 155.081 68.521 157 70.8863 157H108.004C110.369 157 112.286 155.081 112.286 152.714C112.286 150.347 110.369 148.429 108.004 148.429Z" fill="#C2E0FF"/>
<path d="M133.7 167H70.8863C68.521 167 66.6035 168.919 66.6035 171.286C66.6035 173.653 68.521 175.572 70.8863 175.572H133.7C136.065 175.572 137.983 173.653 137.983 171.286C137.983 168.919 136.065 167 133.7 167Z" fill="#DCE3F1"/>
<path d="M48.0453 141.286H20.9211C16.979 141.286 13.7832 144.484 13.7832 148.429V175.571C13.7832 179.516 16.979 182.714 20.9211 182.714H48.0453C51.9874 182.714 55.1832 179.516 55.1832 175.571V148.429C55.1832 144.484 51.9874 141.286 48.0453 141.286Z" fill="url(#paint2_linear_143_1557)"/>
<path d="M31.231 166.686H34.0862L34.1176 165.586C34.1176 164.14 35.0284 163.763 36.3161 163.354C37.6078 162.987 38.7447 162.208 39.555 161.136C40.3653 160.065 40.8048 158.758 40.8072 157.414C40.8355 156.594 40.6933 155.776 40.3895 155.014C40.0858 154.251 39.6271 153.56 39.0426 152.984C38.458 152.408 37.7604 151.959 36.9937 151.667C36.227 151.375 35.4081 151.245 34.5887 151.286C33.7227 151.267 32.862 151.424 32.0586 151.748C31.2552 152.072 30.526 152.556 29.9151 153.171C29.3043 153.785 28.8245 154.517 28.5049 155.323C28.1854 156.128 28.0326 156.991 28.056 157.857H31.0083C30.9971 157.379 31.0814 156.903 31.2563 156.457C31.4313 156.012 31.6933 155.606 32.027 155.263C32.3607 154.921 32.7594 154.648 33.1998 154.462C33.6402 154.275 34.1133 154.178 34.5915 154.177C35.0228 154.152 35.4543 154.22 35.8569 154.377C36.2595 154.534 36.6236 154.775 36.9246 155.085C37.2255 155.396 37.4562 155.767 37.601 156.174C37.7458 156.581 37.8012 157.015 37.7636 157.446C37.7446 158.143 37.5024 158.815 37.0727 159.364C36.643 159.913 36.0484 160.309 35.3767 160.494L34.3403 160.906C33.3256 161.15 32.4397 161.767 31.858 162.635C31.2764 163.502 31.0414 164.556 31.1996 165.589L31.231 166.686ZM32.6443 173.477C32.9239 173.487 33.2026 173.441 33.464 173.341C33.7254 173.241 33.9642 173.09 34.1663 172.897C34.3683 172.703 34.5295 172.471 34.6403 172.214C34.7511 171.957 34.8093 171.68 34.8114 171.4C34.8089 171.12 34.7504 170.844 34.6395 170.587C34.5285 170.33 34.3672 170.099 34.1652 169.905C33.9633 169.712 33.7246 169.561 33.4634 169.461C33.2022 169.362 32.9237 169.316 32.6443 169.326C32.365 169.316 32.0865 169.362 31.8252 169.461C31.564 169.561 31.3254 169.712 31.1234 169.905C30.9214 170.099 30.7601 170.33 30.6492 170.587C30.5382 170.844 30.4797 171.12 30.4772 171.4C30.4793 171.68 30.5375 171.957 30.6483 172.214C30.7591 172.471 30.9203 172.703 31.1224 172.897C31.3244 173.09 31.5632 173.241 31.8246 173.341C32.086 173.441 32.3647 173.487 32.6443 173.477V173.477Z" fill="white"/>
<defs>
<filter id="filter0_d_143_1557" x="0.928572" y="9.71429" width="224.143" height="67.1429" filterUnits="userSpaceOnUse" color-interpolation-filters="sRGB">
<feFlood flood-opacity="0" result="BackgroundImageFix"/>
<feColorMatrix in="SourceAlpha" type="matrix" values="0 0 0 0 0 0 0 0 0 0 0 0 0 0 0 0 0 0 127 0" result="hardAlpha"/>
<feOffset dy="4.28571"/>
<feGaussianBlur stdDeviation="4.28571"/>
<feColorMatrix type="matrix" values="0 0 0 0 0 0 0 0 0 0 0 0 0 0 0 0 0 0 0.161 0"/>
<feBlend mode="normal" in2="BackgroundImageFix" result="effect1_dropShadow_143_1557"/>
<feBlend mode="normal" in="SourceGraphic" in2="effect1_dropShadow_143_1557" result="shape"/>
</filter>
<filter id="filter1_d_143_1557" x="61.9286" y="72.7143" width="224.143" height="67.1429" filterUnits="userSpaceOnUse" color-interpolation-filters="sRGB">
<feFlood flood-opacity="0" result="BackgroundImageFix"/>
<feColorMatrix in="SourceAlpha" type="matrix" values="0 0 0 0 0 0 0 0 0 0 0 0 0 0 0 0 0 0 127 0" result="hardAlpha"/>
<feOffset dy="4.28571"/>
<feGaussianBlur stdDeviation="4.28571"/>
<feColorMatrix type="matrix" values="0 0 0 0 0 0 0 0 0 0 0 0 0 0 0 0 0 0 0.161 0"/>
<feBlend mode="normal" in2="BackgroundImageFix" result="effect1_dropShadow_143_1557"/>
<feBlend mode="normal" in="SourceGraphic" in2="effect1_dropShadow_143_1557" result="shape"/>
</filter>
<filter id="filter2_d_143_1557" x="0.928572" y="132.714" width="224.143" height="67.1429" filterUnits="userSpaceOnUse" color-interpolation-filters="sRGB">
<feFlood flood-opacity="0" result="BackgroundImageFix"/>
<feColorMatrix in="SourceAlpha" type="matrix" values="0 0 0 0 0 0 0 0 0 0 0 0 0 0 0 0 0 0 127 0" result="hardAlpha"/>
<feOffset dy="4.28571"/>
<feGaussianBlur stdDeviation="4.28571"/>
<feColorMatrix type="matrix" values="0 0 0 0 0 0 0 0 0 0 0 0 0 0 0 0 0 0 0.161 0"/>
<feBlend mode="normal" in2="BackgroundImageFix" result="effect1_dropShadow_143_1557"/>
<feBlend mode="normal" in="SourceGraphic" in2="effect1_dropShadow_143_1557" result="shape"/>
</filter>
<linearGradient id="paint0_linear_143_1557" x1="8.65031" y1="18.5713" x2="58.1568" y2="21.3565" gradientUnits="userSpaceOnUse">
<stop stop-color="#3399FF"/>
<stop offset="1" stop-color="#007FFF"/>
</linearGradient>
<linearGradient id="paint1_linear_143_1557" x1="69.6809" y1="79.2857" x2="119.153" y2="82.0671" gradientUnits="userSpaceOnUse">
<stop stop-color="#3399FF"/>
<stop offset="1" stop-color="#007FFF"/>
</linearGradient>
<linearGradient id="paint2_linear_143_1557" x1="7.68089" y1="141.286" x2="57.1535" y2="144.067" gradientUnits="userSpaceOnUse">
<stop stop-color="#3399FF"/>
<stop offset="1" stop-color="#007FFF"/>
</linearGradient>
</defs>
</svg>
