<svg width="287" height="200" viewBox="0 0 287 200" fill="none" xmlns="http://www.w3.org/2000/svg">
<path d="M232.829 0H61.4C53.5102 0 47.1143 6.39593 47.1143 14.2857V185.714C47.1143 193.604 53.5102 200 61.4 200H232.829C240.718 200 247.114 193.604 247.114 185.714V14.2857C247.114 6.39593 240.718 0 232.829 0Z" fill="#0F1117"/>
<g filter="url(#filter0_d_140_1512)">
<path d="M208.862 14H16.1379C12.1958 14 9 17.198 9 21.1429V56.8571C9 60.802 12.1958 64 16.1379 64H208.862C212.804 64 216 60.802 216 56.8571V21.1429C216 17.198 212.804 14 208.862 14Z" fill="#212734"/>
</g>
<path d="M107.504 25.4287H70.3863C68.021 25.4287 66.1035 27.3475 66.1035 29.7144C66.1035 32.0814 68.021 34.0001 70.3863 34.0001H107.504C109.869 34.0001 111.786 32.0814 111.786 29.7144C111.786 27.3475 109.869 25.4287 107.504 25.4287Z" fill="url(#paint0_linear_140_1512)" fill-opacity="0.7"/>
<path d="M133.2 44H70.3863C68.021 44 66.1035 45.9188 66.1035 48.2857C66.1035 50.6526 68.021 52.5714 70.3863 52.5714H133.2C135.565 52.5714 137.483 50.6526 137.483 48.2857C137.483 45.9188 135.565 44 133.2 44Z" fill="#3F4354"/>
<path d="M48.5425 18.5713H21.3997C17.4548 18.5713 14.2568 21.7693 14.2568 25.7141V52.857C14.2568 56.8019 17.4548 59.9999 21.3997 59.9999H48.5425C52.4874 59.9999 55.6854 56.8019 55.6854 52.857V25.7141C55.6854 21.7693 52.4874 18.5713 48.5425 18.5713Z" fill="url(#paint1_linear_140_1512)"/>
<path d="M31.7166 43.9713H34.5737L34.6052 42.8713C34.6052 41.4256 35.5166 41.0484 36.8052 40.6399C38.0977 40.2722 39.2355 39.4936 40.0463 38.422C40.8572 37.3503 41.297 36.0437 41.2994 34.6999C41.3277 33.8794 41.1854 33.0619 40.8814 32.2993C40.5775 31.5367 40.1185 30.8454 39.5336 30.2693C38.9486 29.6933 38.2505 29.2449 37.4833 28.9526C36.7161 28.6603 35.8966 28.5305 35.0766 28.5713C34.21 28.5524 33.3487 28.7097 32.5448 29.0337C31.7408 29.3577 31.0111 29.8417 30.3998 30.4562C29.7885 31.0706 29.3084 31.8029 28.9886 32.6085C28.6688 33.4141 28.516 34.2763 28.5394 35.1427H31.4937C31.4825 34.6643 31.5669 34.1885 31.7419 33.7431C31.917 33.2978 32.1792 32.8918 32.5131 32.5491C32.8471 32.2064 33.2461 31.9337 33.6868 31.7472C34.1274 31.5606 34.6009 31.4639 35.0794 31.4627C35.511 31.4377 35.9429 31.5059 36.3457 31.6626C36.7485 31.8194 37.1129 32.061 37.4141 32.3711C37.7152 32.6812 37.9461 33.0525 38.091 33.4597C38.2359 33.867 38.2914 34.3007 38.2537 34.7313C38.2347 35.4283 37.9923 36.1007 37.5623 36.6496C37.1323 37.1984 36.5374 37.5947 35.8652 37.7799L34.828 38.1913C33.8126 38.436 32.9261 39.053 32.344 39.9203C31.762 40.7875 31.5268 41.8418 31.6852 42.8742L31.7166 43.9713ZM33.1309 50.7627C33.4107 50.7727 33.6896 50.7264 33.9512 50.6267C34.2128 50.527 34.4517 50.3758 34.6539 50.1822C34.8561 49.9885 35.0173 49.7563 35.1282 49.4993C35.2391 49.2422 35.2973 48.9655 35.2994 48.6856C35.297 48.4059 35.2385 48.1295 35.1274 47.8728C35.0163 47.6161 34.855 47.3842 34.6529 47.1908C34.4507 46.9975 34.2119 46.8466 33.9505 46.7471C33.6891 46.6475 33.4104 46.6014 33.1309 46.6113C32.8513 46.6014 32.5726 46.6475 32.3112 46.7471C32.0498 46.8466 31.811 46.9975 31.6089 47.1908C31.4068 47.3842 31.2454 47.6161 31.1343 47.8728C31.0233 48.1295 30.9648 48.4059 30.9623 48.6856C30.9644 48.9655 31.0226 49.2422 31.1335 49.4993C31.2444 49.7563 31.4057 49.9885 31.6079 50.1822C31.81 50.3758 32.049 50.527 32.3106 50.6267C32.5722 50.7264 32.8511 50.7727 33.1309 50.7627V50.7627Z" fill="#212734"/>
<g filter="url(#filter1_d_140_1512)">
<path d="M78.1379 75H270.862C272.755 75 274.571 75.7525 275.909 77.0921C277.248 78.4316 278 80.2485 278 82.1429V117.857C278 119.752 277.248 121.568 275.909 122.908C274.571 124.247 272.755 125 270.862 125H78.1379C76.2448 125 74.4293 124.247 73.0907 122.908C71.752 121.568 71 119.752 71 117.857V82.1429C71 80.2485 71.752 78.4316 73.0907 77.0921C74.4293 75.7525 76.2448 75 78.1379 75V75Z" fill="#212734"/>
</g>
<path d="M169.504 86.4285H132.386C130.021 86.4285 128.104 88.3472 128.104 90.7142C128.104 93.0811 130.021 94.9999 132.386 94.9999H169.504C171.869 94.9999 173.786 93.0811 173.786 90.7142C173.786 88.3472 171.869 86.4285 169.504 86.4285Z" fill="url(#paint2_linear_140_1512)" fill-opacity="0.7"/>
<path d="M195.2 105H132.386C130.021 105 128.104 106.919 128.104 109.286C128.104 111.653 130.021 113.571 132.386 113.571H195.2C197.565 113.571 199.483 111.653 199.483 109.286C199.483 106.919 197.565 105 195.2 105Z" fill="#3F4354"/>
<path d="M109.545 79.2856H82.4211C78.479 79.2856 75.2832 82.4836 75.2832 86.4285V113.571C75.2832 117.516 78.479 120.714 82.4211 120.714H109.545C113.487 120.714 116.683 117.516 116.683 113.571V86.4285C116.683 82.4836 113.487 79.2856 109.545 79.2856Z" fill="url(#paint3_linear_140_1512)"/>
<path d="M92.731 104.686H95.5862L95.6176 103.586C95.6176 102.14 96.5284 101.763 97.8161 101.354C99.1078 100.987 100.245 100.208 101.055 99.1363C101.865 98.0646 102.305 96.7581 102.307 95.4142C102.336 94.5937 102.193 93.7763 101.89 93.0137C101.586 92.251 101.127 91.5598 100.543 90.9837C99.958 90.4076 99.2604 89.9593 98.4937 89.667C97.727 89.3747 96.9081 89.2448 96.0887 89.2857C95.2227 89.2668 94.362 89.4241 93.5586 89.7481C92.7552 90.0721 92.026 90.556 91.4151 91.1705C90.8043 91.785 90.3245 92.5173 90.0049 93.3229C89.6854 94.1285 89.5326 94.9906 89.556 95.8571H92.5083C92.4971 95.3787 92.5814 94.9029 92.7563 94.4575C92.9313 94.0121 93.1933 93.6062 93.527 93.2634C93.8607 92.9207 94.2594 92.6481 94.6998 92.4615C95.1402 92.275 95.6133 92.1783 96.0915 92.1771C96.5228 92.1521 96.9543 92.2202 97.3569 92.377C97.7595 92.5337 98.1236 92.7754 98.4246 93.0855C98.7255 93.3955 98.9562 93.7668 99.101 94.1741C99.2458 94.5814 99.3012 95.015 99.2636 95.4457C99.2446 96.1426 99.0024 96.8151 98.5727 97.3639C98.143 97.9128 97.5484 98.309 96.8767 98.4942L95.8403 98.9057C94.8256 99.1503 93.9397 99.7674 93.358 100.635C92.7764 101.502 92.5414 102.556 92.6996 103.589L92.731 104.686ZM94.1443 111.477C94.4239 111.487 94.7026 111.441 94.964 111.341C95.2254 111.241 95.4642 111.09 95.6663 110.897C95.8683 110.703 96.0295 110.471 96.1403 110.214C96.2511 109.957 96.3093 109.68 96.3114 109.4C96.3089 109.12 96.2504 108.844 96.1395 108.587C96.0285 108.33 95.8672 108.099 95.6652 107.905C95.4633 107.712 95.2246 107.561 94.9634 107.461C94.7022 107.362 94.4237 107.316 94.1443 107.326C93.865 107.316 93.5865 107.362 93.3252 107.461C93.064 107.561 92.8254 107.712 92.6234 107.905C92.4214 108.099 92.2601 108.33 92.1492 108.587C92.0382 108.844 91.9797 109.12 91.9772 109.4C91.9793 109.68 92.0375 109.957 92.1483 110.214C92.2591 110.471 92.4203 110.703 92.6224 110.897C92.8244 111.09 93.0632 111.241 93.3246 111.341C93.586 111.441 93.8647 111.487 94.1443 111.477V111.477Z" fill="#212734"/>
<g filter="url(#filter2_d_140_1512)">
<path d="M16.1379 137H208.862C210.755 137 212.571 137.753 213.909 139.092C215.248 140.432 216 142.248 216 144.143V179.857C216 181.752 215.248 183.568 213.909 184.908C212.571 186.247 210.755 187 208.862 187H16.1379C14.2448 187 12.4293 186.247 11.0907 184.908C9.75203 183.568 9 181.752 9 179.857V144.143C9 142.248 9.75203 140.432 11.0907 139.092C12.4293 137.753 14.2448 137 16.1379 137V137Z" fill="#212734"/>
</g>
<path d="M107.504 148.429H70.3863C68.021 148.429 66.1035 150.347 66.1035 152.714C66.1035 155.081 68.021 157 70.3863 157H107.504C109.869 157 111.786 155.081 111.786 152.714C111.786 150.347 109.869 148.429 107.504 148.429Z" fill="url(#paint4_linear_140_1512)" fill-opacity="0.7"/>
<path d="M133.2 167H70.3863C68.021 167 66.1035 168.919 66.1035 171.286C66.1035 173.653 68.021 175.572 70.3863 175.572H133.2C135.565 175.572 137.483 173.653 137.483 171.286C137.483 168.919 135.565 167 133.2 167Z" fill="#3F4354"/>
<path d="M47.5453 141.286H20.4211C16.479 141.286 13.2832 144.484 13.2832 148.429V175.571C13.2832 179.516 16.479 182.714 20.4211 182.714H47.5453C51.4874 182.714 54.6832 179.516 54.6832 175.571V148.429C54.6832 144.484 51.4874 141.286 47.5453 141.286Z" fill="url(#paint5_linear_140_1512)"/>
<path d="M30.731 166.686H33.5862L33.6176 165.586C33.6176 164.14 34.5284 163.763 35.8161 163.354C37.1078 162.987 38.2447 162.208 39.055 161.136C39.8653 160.065 40.3048 158.758 40.3072 157.414C40.3355 156.594 40.1933 155.776 39.8895 155.014C39.5858 154.251 39.1271 153.56 38.5426 152.984C37.958 152.408 37.2604 151.959 36.4937 151.667C35.727 151.375 34.9081 151.245 34.0887 151.286C33.2227 151.267 32.362 151.424 31.5586 151.748C30.7552 152.072 30.026 152.556 29.4151 153.171C28.8043 153.785 28.3245 154.517 28.0049 155.323C27.6854 156.128 27.5326 156.991 27.556 157.857H30.5083C30.4971 157.379 30.5814 156.903 30.7563 156.457C30.9313 156.012 31.1933 155.606 31.527 155.263C31.8607 154.921 32.2594 154.648 32.6998 154.462C33.1402 154.275 33.6133 154.178 34.0915 154.177C34.5228 154.152 34.9543 154.22 35.3569 154.377C35.7595 154.534 36.1236 154.775 36.4246 155.085C36.7255 155.396 36.9562 155.767 37.101 156.174C37.2458 156.581 37.3012 157.015 37.2636 157.446C37.2446 158.143 37.0024 158.815 36.5727 159.364C36.143 159.913 35.5484 160.309 34.8767 160.494L33.8403 160.906C32.8256 161.15 31.9397 161.767 31.358 162.635C30.7764 163.502 30.5414 164.556 30.6996 165.589L30.731 166.686ZM32.1443 173.477C32.4239 173.487 32.7026 173.441 32.964 173.341C33.2254 173.241 33.4642 173.09 33.6663 172.897C33.8683 172.703 34.0295 172.471 34.1403 172.214C34.2511 171.957 34.3093 171.68 34.3114 171.4C34.3089 171.12 34.2504 170.844 34.1395 170.587C34.0285 170.33 33.8672 170.099 33.6652 169.905C33.4633 169.712 33.2246 169.561 32.9634 169.461C32.7022 169.362 32.4237 169.316 32.1443 169.326C31.865 169.316 31.5865 169.362 31.3252 169.461C31.064 169.561 30.8254 169.712 30.6234 169.905C30.4214 170.099 30.2601 170.33 30.1492 170.587C30.0382 170.844 29.9797 171.12 29.9772 171.4C29.9793 171.68 30.0375 171.957 30.1483 172.214C30.2591 172.471 30.4203 172.703 30.6224 172.897C30.8244 173.09 31.0632 173.241 31.3246 173.341C31.586 173.441 31.8647 173.487 32.1443 173.477V173.477Z" fill="#212734"/>
<defs>
<filter id="filter0_d_140_1512" x="0.428572" y="9.71429" width="224.143" height="67.1429" filterUnits="userSpaceOnUse" color-interpolation-filters="sRGB">
<feFlood flood-opacity="0" result="BackgroundImageFix"/>
<feColorMatrix in="SourceAlpha" type="matrix" values="0 0 0 0 0 0 0 0 0 0 0 0 0 0 0 0 0 0 127 0" result="hardAlpha"/>
<feOffset dy="4.28571"/>
<feGaussianBlur stdDeviation="4.28571"/>
<feColorMatrix type="matrix" values="0 0 0 0 0 0 0 0 0 0 0 0 0 0 0 0 0 0 0.161 0"/>
<feBlend mode="normal" in2="BackgroundImageFix" result="effect1_dropShadow_140_1512"/>
<feBlend mode="normal" in="SourceGraphic" in2="effect1_dropShadow_140_1512" result="shape"/>
</filter>
<filter id="filter1_d_140_1512" x="62.4286" y="70.7143" width="224.143" height="67.1429" filterUnits="userSpaceOnUse" color-interpolation-filters="sRGB">
<feFlood flood-opacity="0" result="BackgroundImageFix"/>
<feColorMatrix in="SourceAlpha" type="matrix" values="0 0 0 0 0 0 0 0 0 0 0 0 0 0 0 0 0 0 127 0" result="hardAlpha"/>
<feOffset dy="4.28571"/>
<feGaussianBlur stdDeviation="4.28571"/>
<feColorMatrix type="matrix" values="0 0 0 0 0 0 0 0 0 0 0 0 0 0 0 0 0 0 0.161 0"/>
<feBlend mode="normal" in2="BackgroundImageFix" result="effect1_dropShadow_140_1512"/>
<feBlend mode="normal" in="SourceGraphic" in2="effect1_dropShadow_140_1512" result="shape"/>
</filter>
<filter id="filter2_d_140_1512" x="0.428572" y="132.714" width="224.143" height="67.1429" filterUnits="userSpaceOnUse" color-interpolation-filters="sRGB">
<feFlood flood-opacity="0" result="BackgroundImageFix"/>
<feColorMatrix in="SourceAlpha" type="matrix" values="0 0 0 0 0 0 0 0 0 0 0 0 0 0 0 0 0 0 127 0" result="hardAlpha"/>
<feOffset dy="4.28571"/>
<feGaussianBlur stdDeviation="4.28571"/>
<feColorMatrix type="matrix" values="0 0 0 0 0 0 0 0 0 0 0 0 0 0 0 0 0 0 0.161 0"/>
<feBlend mode="normal" in2="BackgroundImageFix" result="effect1_dropShadow_140_1512"/>
<feBlend mode="normal" in="SourceGraphic" in2="effect1_dropShadow_140_1512" result="shape"/>
</filter>
<linearGradient id="paint0_linear_140_1512" x1="107.254" y1="26.9012" x2="72.2505" y2="36.423" gradientUnits="userSpaceOnUse">
<stop stop-color="#171C23" stop-opacity="0.58"/>
<stop offset="1" stop-color="#13161C"/>
</linearGradient>
<linearGradient id="paint1_linear_140_1512" x1="8.15031" y1="18.5713" x2="57.6568" y2="21.3565" gradientUnits="userSpaceOnUse">
<stop stop-color="#3399FF"/>
<stop offset="1" stop-color="#007FFF"/>
</linearGradient>
<linearGradient id="paint2_linear_140_1512" x1="169.254" y1="87.901" x2="134.25" y2="97.4228" gradientUnits="userSpaceOnUse">
<stop stop-color="#171C23" stop-opacity="0.58"/>
<stop offset="1" stop-color="#13161C"/>
</linearGradient>
<linearGradient id="paint3_linear_140_1512" x1="69.1809" y1="79.2857" x2="118.653" y2="82.0671" gradientUnits="userSpaceOnUse">
<stop stop-color="#3399FF"/>
<stop offset="1" stop-color="#007FFF"/>
</linearGradient>
<linearGradient id="paint4_linear_140_1512" x1="107.254" y1="149.901" x2="72.2505" y2="159.423" gradientUnits="userSpaceOnUse">
<stop stop-color="#171C23" stop-opacity="0.58"/>
<stop offset="1" stop-color="#13161C"/>
</linearGradient>
<linearGradient id="paint5_linear_140_1512" x1="7.18089" y1="141.286" x2="56.6535" y2="144.067" gradientUnits="userSpaceOnUse">
<stop stop-color="#3399FF"/>
<stop offset="1" stop-color="#007FFF"/>
</linearGradient>
</defs>
</svg>
