<svg width="24" height="24" viewBox="0 0 24 24" fill="none" xmlns="http://www.w3.org/2000/svg">
<path fill-rule="evenodd" clip-rule="evenodd" d="M17.7727 7.32466C17.8448 7.25269 17.902 7.16724 17.941 7.07318C17.98 6.97911 18.0001 6.87828 18.0002 6.77644C18.0003 6.67461 17.9803 6.57375 17.9413 6.47964C17.9024 6.38553 17.8454 6.3 17.7734 6.22795C17.7014 6.15589 17.616 6.09872 17.5219 6.05969C17.4279 6.02066 17.327 6.00054 17.2252 6.00048C17.1233 6.00041 17.0225 6.02041 16.9284 6.05932C16.8343 6.09824 16.7487 6.15531 16.6767 6.22728L12 10.904L7.32466 6.22728C7.17914 6.08175 6.98177 6 6.77597 6C6.57017 6 6.3728 6.08175 6.22728 6.22728C6.08175 6.3728 6 6.57017 6 6.77597C6 6.98177 6.08175 7.17914 6.22728 7.32466L10.904 12L6.22728 16.6753C6.15522 16.7474 6.09806 16.8329 6.05907 16.9271C6.02007 17.0212 6 17.1221 6 17.224C6 17.3259 6.02007 17.4268 6.05907 17.521C6.09806 17.6151 6.15522 17.7007 6.22728 17.7727C6.3728 17.9182 6.57017 18 6.77597 18C6.87787 18 6.97877 17.9799 7.07292 17.9409C7.16706 17.9019 7.2526 17.8448 7.32466 17.7727L12 13.096L16.6767 17.7727C16.8222 17.9181 17.0195 17.9996 17.2252 17.9995C17.4309 17.9994 17.6281 17.9176 17.7734 17.772C17.9187 17.6265 18.0003 17.4292 18.0002 17.2236C18.0001 17.0179 17.9182 16.8207 17.7727 16.6753L13.096 12L17.7727 7.32466Z" fill="#DCE3F1"/>
</svg>
