<?xml version="1.0" encoding="utf-8"?>
<!-- Generator: Adobe Illustrator 25.0.1, SVG Export Plug-In . SVG Version: 6.00 Build 0)  -->
<svg version="1.1" id="Layer_1" xmlns="http://www.w3.org/2000/svg" xmlns:xlink="http://www.w3.org/1999/xlink" x="0px" y="0px"
	 viewBox="0 0 12 12" style="enable-background:new 0 0 12 12;" xml:space="preserve">
<style type="text/css">
	.st0{fill:url(#SVGID_1_);}
</style>
<linearGradient id="SVGID_1_" gradientUnits="userSpaceOnUse" x1="-2.0689" y1="8.6647" x2="12.2709" y2="7.858" gradientTransform="matrix(1 0 0 -1 0 14)">
	<stop  offset="0" style="stop-color:#FFFFFF"/>
	<stop  offset="1" style="stop-color:#FFFFFF"/>
</linearGradient>
<path class="st0" d="M7.7,2C7.6,2,7.5,2.1,7.5,2.3c0,0.1,0.1,0.2,0.2,0.3L9,3l0.5,1.3c0,0.1,0.1,0.2,0.3,0.2S10,4.4,10,4.3L10.5,3
	l1.3-0.5c0.1,0,0.2-0.1,0.2-0.3C12,2.1,11.9,2,11.8,2l-1.3-0.5L10,0.2C10,0.1,9.9,0,9.8,0S9.5,0.1,9.5,0.2L9,1.5L7.7,2z M4.8,1.7
	C4.7,1.6,4.6,1.5,4.5,1.5c-0.1,0-0.3,0.1-0.3,0.2L2.9,4.4L0.2,5.6C0.1,5.7,0,5.8,0,6c0,0.1,0.1,0.3,0.2,0.3l2.7,1.2l1.2,2.7
	c0.1,0.1,0.2,0.2,0.3,0.2c0.1,0,0.3-0.1,0.3-0.2L6,7.5l2.7-1.2C8.8,6.2,8.9,6.1,8.9,6c0-0.1-0.1-0.3-0.2-0.3L6,4.4L4.8,1.7z M9,9
	L7.7,9.5c-0.1,0-0.2,0.1-0.2,0.3c0,0.1,0.1,0.2,0.2,0.3L9,10.5l0.5,1.3c0,0.1,0.1,0.2,0.3,0.2s0.2-0.1,0.3-0.2l0.5-1.3l1.3-0.5
	c0.1,0,0.2-0.1,0.2-0.3c0-0.1-0.1-0.2-0.2-0.3L10.5,9L10,7.7c0-0.1-0.1-0.2-0.3-0.2S9.5,7.6,9.5,7.7L9,9z"/>
</svg>